# File created by Blade
# Date/Time:  Tue Sep 30 19:36:50 2014
#---------------------------------------------------------
:version 1.10
:name HOM
:units
  mass 1.0
  length 1.000000
  angle deg
:documentation
     Acclaim Skeleton File
:root
   axis xyz
   order TX TY TZ RX RY RZ
   position 0.000000 0.000000 0.000000
   orientation 0 0 0
:bonedata
   begin
      id 1
      name Spine_dum
      direction 0.000000 1.000000 0.000000
      length 3.241213
      axis 0.0 0.0 0.0 xyz
   end
   begin
      id 2
      name LeftUpLeg_dum
      direction 1.000000 0.000000 0.000000
      length 3.434019
      axis 0.0 0.0 0.0 xyz
   end
   begin
      id 3
      name RightUpLeg_dum
      direction -1.000000 0.000000 0.000000
      length 3.434019
      axis 0.0 0.0 0.0 xyz
   end
   begin
      id 4
      name Spine
      direction 0.000000 1.000000 0.000000
      length 0.000000
      axis 0.0 0.0 0.0 xyz
      dof rx ry rz
   end
   begin
      id 5
      name Spine_dum1
      direction 0.000000 1.000000 0.000000
      length 18.382958
      axis 0.0 0.0 0.0 xyz
   end
   begin
      id 6
      name Spine_dum2
      direction 0.000000 1.000000 0.000000
      length 12.828261
      axis 0.0 0.0 0.0 xyz
   end
   begin
      id 7
      name Spine_dum3
      direction 0.000000 1.000000 0.000000
      length 12.828261
      axis 0.0 0.0 0.0 xyz
   end
   begin
      id 8
      name Head
      direction 0.000000 1.000000 0.000000
      length 4.527550
      axis 0.0 0.0 0.0 xyz
      dof rx ry rz
   end
   begin
      id 9
      name LeftShoulder
      direction 1.000000 0.000000 0.000000
      length 7.748055
      axis 0.0 0.0 -90.0 xyz
      dof rx ry rz
   end
   begin
      id 10
      name LeftArm
      direction 1.000000 0.000000 0.000000
      length 10.635614
      axis 0.0 0.0 -90.0 xyz
      dof rx ry rz
   end
   begin
      id 11
      name LeftForeArm
      direction 1.000000 0.000000 0.000000
      length 8.346755
      axis 0.0 0.0 -90.0 xyz
      dof ry rz rx
   end
   begin
      id 12
      name LeftHand
      direction 0.000000 0.000000 0.000000
      length 0.000000
      axis 0.0 0.0 -90.0 xyz
      dof rx ry rz
   end
   begin
      id 13
      name LeftHand_dum1
      direction 0.000000 0.000000 0.000000
      length 0.000000
      axis 0.0 0.0 -90.0 xyz
   end
   begin
      id 14
      name LeftHand_dum2
      direction 1.000000 0.000000 0.000000
      length 3.937000
      axis 0.0 0.0 -90.0 xyz
   end
   begin
      id 15
      name LeftHandThumb1
      direction 0.000000 0.000000 1.000000
      length 3.937000
      axis 0.0 0.0 -90.0 xyz
      dof rx rz ry
   end
   begin
      id 16
      name RightShoulder
      direction -1.000000 0.000000 0.000000
      length 7.748055
      axis 0.0 0.0 90.0 xyz
      dof rx ry rz
   end
   begin
      id 17
      name RightArm
      direction -1.000000 0.000000 0.000000
      length 10.635614
      axis 0.0 0.0 90.0 xyz
      dof rx ry rz
   end
   begin
      id 18
      name RightForeArm
      direction -1.000000 0.000000 0.000000
      length 8.346755
      axis 0.0 0.0 90.0 xyz
      dof ry rz rx
   end
   begin
      id 19
      name RightHand
      direction 0.000000 0.000000 0.000000
      length 0.000000
      axis 0.0 0.0 90.0 xyz
      dof rx ry rz
   end
   begin
      id 20
      name RightHand_dum1
      direction 0.000000 0.000000 0.000000
      length 0.000000
      axis 0.0 0.0 90.0 xyz
   end
   begin
      id 21
      name RightHand_dum2
      direction -1.000000 0.000000 0.000000
      length 3.937000
      axis 0.0 0.0 90.0 xyz
   end
   begin
      id 22
      name RightHandThumb1
      direction 0.000000 0.000000 1.000000
      length 3.937000
      axis 0.0 0.0 90.0 xyz
      dof rx rz ry
   end
   begin
      id 23
      name LeftUpLeg
      direction 0.000000 -1.000000 0.000000
      length 15.713025
      axis 0.0 0.0 0.0 xyz
      dof rx ry rz
   end
   begin
      id 24
      name LeftLeg
      direction 0.000000 -1.000000 0.000000
      length 14.435119
      axis 0.0 0.0 0.0 xyz
      dof rx ry rz
   end
   begin
      id 25
      name LeftFoot
      direction 0.000000 -0.258819 0.965926
      length 4.938895
      axis 15.0 0.0 0.0 xyz
      dof rx ry rz
   end
   begin
      id 26
      name LeftToeBase
      direction 0.000000 0.000000 1.000000
      length 2.952750
      axis 0.0 0.0 0.0 xyz
      dof rx ry rz
   end
   begin
      id 27
      name RightUpLeg
      direction 0.000000 -1.000000 0.000000
      length 15.713025
      axis 0.0 0.0 0.0 xyz
      dof rx ry rz
   end
   begin
      id 28
      name RightLeg
      direction 0.000000 -1.000000 0.000000
      length 14.435119
      axis 0.0 0.0 0.0 xyz
      dof rx ry rz
   end
   begin
      id 29
      name RightFoot
      direction 0.000000 -0.258819 0.965926
      length 4.938895
      axis 15.0 0.0 0.0 xyz
      dof rx ry rz
   end
   begin
      id 30
      name RightToeBase
      direction 0.000000 0.000000 1.000000
      length 2.952750
      axis 0.0 0.0 0.0 xyz
      dof rx ry rz
   end
:hierarchy
   begin
      root Spine_dum LeftUpLeg_dum RightUpLeg_dum
      Spine_dum Spine
      LeftUpLeg_dum LeftUpLeg
      RightUpLeg_dum RightUpLeg
      Spine Spine_dum1 Spine_dum2 Spine_dum3
      Spine_dum1 Head
      Spine_dum2 LeftShoulder
      Spine_dum3 RightShoulder
      LeftShoulder LeftArm
      LeftArm LeftForeArm
      LeftForeArm LeftHand
      LeftHand LeftHand_dum1 LeftHand_dum2
      LeftHand_dum1 LeftHandThumb1
      RightShoulder RightArm
      RightArm RightForeArm
      RightForeArm RightHand
      RightHand RightHand_dum1 RightHand_dum2
      RightHand_dum1 RightHandThumb1
      LeftUpLeg LeftLeg
      LeftLeg LeftFoot
      LeftFoot LeftToeBase
      RightUpLeg RightLeg
      RightLeg RightFoot
      RightFoot RightToeBase
   end

# File created by Blade
# Date/Time:  Tue Sep 23 19:06:47 2014
# Frame Rate: 120.000 fps
#------------------------------------------------------
:FULLY-SPECIFIED
:DEGREES
140
root 1.727316 32.689771 -7.279703 30.798998 -8.299365 -11.589491
Spine -19.074766 9.802177 3.729704
Head -17.379460 -2.831212 5.157790
LeftShoulder -14.240977 44.791895 25.130216
LeftArm 59.262182 -14.237301 -65.164631
LeftForeArm 86.391180 -0.000000 -2.738770
LeftHand -4.322178 -0.000000 57.257519
LeftHandThumb1 -26.253704 0.000000 33.147579
RightShoulder 4.355072 -39.177138 -10.750253
RightArm 74.111324 -7.466538 77.652936
RightForeArm 43.507086 -0.000000 13.232934
RightHand 14.888353 0.000000 3.043610
RightHandThumb1 -24.326973 -0.000000 -32.862282
LeftUpLeg -38.137203 7.313140 2.412747
LeftLeg 16.219454 -0.000000 -0.000000
LeftFoot -10.385324 6.813593 3.983384
LeftToeBase 5.870098 -0.000000 -0.000000
RightUpLeg -106.751681 -20.428500 20.366704
RightLeg 86.798273 -0.000000 -0.000000
RightFoot 26.195379 11.333706 17.895889
RightToeBase 24.821239 -0.000000 -0.000000
141
root 1.731403 32.696847 -7.326093 30.885498 -8.112463 -11.983014
Spine -18.713862 10.220222 4.000767
Head -18.230951 -3.098076 5.191662
LeftShoulder -14.212848 44.805283 25.280688
LeftArm 59.470771 -14.165754 -65.046065
LeftForeArm 87.648997 0.000000 -2.744464
LeftHand -5.536453 -0.000000 57.844745
LeftHandThumb1 -26.253704 0.000000 33.147579
RightShoulder 4.459250 -39.092741 -10.367954
RightArm 74.444925 -7.988153 77.181885
RightForeArm 46.264657 -0.000000 11.404961
RightHand 15.302255 -0.000000 3.431622
RightHandThumb1 -24.326973 -0.000000 -32.862282
LeftUpLeg -38.484529 7.395252 2.808324
LeftLeg 16.631149 -0.000000 -0.000000
LeftFoot -10.525522 6.883308 4.003555
LeftToeBase 5.822000 -0.000000 -0.000000
RightUpLeg -108.886642 -20.539163 21.316075
RightLeg 87.791633 -0.000000 -0.000000
RightFoot 26.529045 11.284805 17.670039
RightToeBase 25.157776 -0.000000 -0.000000
142
root 1.739883 32.703082 -7.372222 30.945507 -7.856261 -12.378407
Spine -18.311273 10.574626 4.370910
Head -19.101942 -3.374936 5.101858
LeftShoulder -14.236196 44.793186 25.369161
LeftArm 59.537940 -14.072099 -64.910579
LeftForeArm 87.372203 -0.000000 -2.403409
LeftHand -5.524016 -0.000000 57.865389
LeftHandThumb1 -26.253704 0.000000 33.147579
RightShoulder 4.591980 -38.972243 -10.076986
RightArm 74.700128 -8.442850 76.884873
RightForeArm 48.994937 -0.000000 9.570551
RightHand 15.593403 0.000000 4.157593
RightHandThumb1 -24.326973 -0.000000 -32.862282
LeftUpLeg -38.823535 7.379972 3.255697
LeftLeg 17.069409 -0.000000 -0.000000
LeftFoot -10.650307 6.932650 3.952355
LeftToeBase 5.875313 -0.000000 -0.000000
RightUpLeg -110.965361 -20.672199 22.250224
RightLeg 88.723588 -0.000000 -0.000000
RightFoot 26.897492 11.218917 17.750156
RightToeBase 25.069373 -0.000000 -0.000000
143
root 1.749491 32.709917 -7.419896 31.118656 -7.733084 -12.772215
Spine -18.039371 11.046866 4.638324
Head -19.916942 -3.640616 5.065129
LeftShoulder -14.242128 44.782758 25.488546
LeftArm 59.647061 -14.107489 -64.948955
LeftForeArm 87.773874 -0.000000 -2.189761
LeftHand -5.938063 -0.000000 58.048706
LeftHandThumb1 -26.253704 0.000000 33.147579
RightShoulder 4.776278 -38.846683 -9.825396
RightArm 74.840982 -8.847328 76.672440
RightForeArm 51.629356 0.000000 7.755306
RightHand 15.763044 -0.000000 4.959625
RightHandThumb1 -24.326973 -0.000000 -32.862282
LeftUpLeg -39.219220 7.395741 3.672066
LeftLeg 17.435941 -0.000000 -0.000000
LeftFoot -10.714857 7.087347 3.974957
LeftToeBase 5.780959 -0.000000 -0.000000
RightUpLeg -113.104393 -20.578873 23.141176
RightLeg 89.582344 -0.000000 -0.000000
RightFoot 27.186551 11.061481 17.752282
RightToeBase 25.383712 -0.000000 -0.000000
144
root 1.752888 32.713359 -7.466214 31.122697 -7.498048 -13.089003
Spine -17.595945 11.385094 4.920343
Head -20.735290 -3.929340 5.035086
LeftShoulder -14.281098 44.735779 25.546826
LeftArm 59.740876 -14.114016 -64.769381
LeftForeArm 88.402621 -0.000000 -2.090715
LeftHand -6.641690 -0.000000 58.385981
LeftHandThumb1 -26.253704 0.000000 33.147579
RightShoulder 4.964364 -38.724912 -9.603476
RightArm 74.912679 -9.169296 76.620198
RightForeArm 54.358871 -0.000000 6.070669
RightHand 16.337187 0.000000 5.570673
RightHandThumb1 -24.326973 -0.000000 -32.862282
LeftUpLeg -39.525853 7.364101 4.051562
LeftLeg 17.891359 -0.000000 -0.000000
LeftFoot -10.789114 7.128353 3.968846
LeftToeBase 5.819635 -0.000000 -0.000000
RightUpLeg -115.158964 -20.653047 24.000649
RightLeg 90.459142 -0.000000 -0.000000
RightFoot 27.546909 11.268892 17.851156
RightToeBase 25.573819 -0.000000 -0.000000
145
root 1.754530 32.717275 -7.505638 31.129917 -7.323365 -13.525635
Spine -17.143543 11.869719 5.298087
Head -21.543752 -4.234957 4.942470
LeftShoulder -14.321964 44.735717 25.558680
LeftArm 59.866159 -14.268392 -64.769288
LeftForeArm 88.676033 -0.000000 -1.866918
LeftHand -6.849585 0.000000 58.574248
LeftHandThumb1 -26.253704 0.000000 33.147579
RightShoulder 5.086662 -38.652351 -9.374893
RightArm 75.041223 -9.534944 76.505147
RightForeArm 57.400216 -0.000000 4.256889
RightHand 16.281200 -0.000000 5.828080
RightHandThumb1 -24.326973 -0.000000 -32.862282
LeftUpLeg -39.869619 7.719930 4.334002
LeftLeg 18.449062 -0.000000 -0.000000
LeftFoot -10.923939 6.939509 4.174878
LeftToeBase 5.649130 -0.000000 -0.000000
RightUpLeg -117.105197 -20.582088 24.906500
RightLeg 91.271225 -0.000000 -0.000000
RightFoot 28.013081 11.278288 17.904353
RightToeBase 25.625300 -0.000000 -0.000000
146
root 1.757912 32.723969 -7.548667 31.344603 -7.202307 -13.959492
Spine -16.932737 12.410779 5.610675
Head -22.245723 -4.598086 4.880250
LeftShoulder -14.397629 44.754685 25.516551
LeftArm 60.031972 -14.413482 -64.631054
LeftForeArm 89.440974 -0.000000 -1.838951
LeftHand -7.612790 -0.000000 58.897747
LeftHandThumb1 -26.253704 0.000000 33.147579
RightShoulder 5.293206 -38.633748 -9.247749
RightArm 75.005002 -9.728592 76.915829
RightForeArm 59.612663 -0.000000 2.530789
RightHand 15.016061 -0.000000 7.243403
RightHandThumb1 -24.326973 -0.000000 -32.862282
LeftUpLeg -40.295640 7.807951 4.762509
LeftLeg 18.819604 -0.000000 -0.000000
LeftFoot -10.998009 7.065384 4.209339
LeftToeBase 5.600469 -0.000000 -0.000000
RightUpLeg -119.176464 -20.338821 25.826666
RightLeg 91.977446 -0.000000 -0.000000
RightFoot 28.521386 11.208816 18.110958
RightToeBase 25.841156 -0.000000 -0.000000
147
root 1.759010 32.729419 -7.589972 31.434272 -7.067875 -14.416705
Spine -16.568938 12.931486 5.999262
Head -22.964612 -4.886948 4.760577
LeftShoulder -14.487945 44.729037 25.444621
LeftArm 60.101774 -14.681115 -64.675490
LeftForeArm 89.579474 0.000000 -1.566228
LeftHand -7.670962 -0.000000 58.904703
LeftHandThumb1 -26.253704 0.000000 33.147579
RightShoulder 5.528553 -38.652297 -9.175261
RightArm 74.946670 -9.898006 77.090933
RightForeArm 62.204824 -0.000000 1.114901
RightHand 13.545358 -0.000000 8.368448
RightHandThumb1 -24.326973 -0.000000 -32.862282
LeftUpLeg -40.649073 7.999373 5.178043
LeftLeg 19.290454 -0.000000 -0.000000
LeftFoot -11.083852 7.054878 4.343479
LeftToeBase 5.441281 -0.000000 -0.000000
RightUpLeg -121.105259 -20.085793 26.715571
RightLeg 92.673698 -0.000000 -0.000000
RightFoot 29.080831 11.143007 18.237564
RightToeBase 25.884557 -0.000000 -0.000000
148
root 1.756490 32.734390 -7.625552 31.446001 -6.962602 -14.864346
Spine -16.129798 13.451037 6.382712
Head -23.653784 -5.217201 4.692377
LeftShoulder -14.604580 44.724178 25.313353
LeftArm 60.103508 -14.873225 -64.460714
LeftForeArm 89.507656 -0.000000 -1.298433
LeftHand -7.821012 0.000000 58.973613
LeftHandThumb1 -26.253704 0.000000 33.147579
RightShoulder 5.705665 -38.573226 -9.067824
RightArm 74.807379 -10.113008 77.212080
RightForeArm 65.010684 0.000000 -0.464238
RightHand 12.899633 0.000000 9.032774
RightHandThumb1 -24.326973 -0.000000 -32.862282
LeftUpLeg -40.892356 8.216717 5.584108
LeftLeg 19.727365 -0.000000 -0.000000
LeftFoot -11.196340 7.002608 4.431948
LeftToeBase 5.355800 -0.000000 -0.000000
RightUpLeg -122.924298 -19.807239 27.531218
RightLeg 93.360030 -0.000000 -0.000000
RightFoot 29.678202 11.033056 18.410745
RightToeBase 26.051775 -0.000000 -0.000000
149
root 1.752510 32.738772 -7.652238 31.325983 -6.930333 -15.302143
Spine -15.557598 13.984459 6.768514
Head -24.316908 -5.489099 4.605170
LeftShoulder -14.756888 44.678511 25.144431
LeftArm 60.049591 -15.066244 -64.195106
LeftForeArm 89.494799 -0.000000 -1.075618
LeftHand -7.923789 -0.000000 59.079203
LeftHandThumb1 -26.253704 0.000000 33.147579
RightShoulder 5.955150 -38.559587 -8.990990
RightArm 74.562102 -10.033515 78.028824
RightForeArm 67.333315 -0.000000 -1.904800
RightHand 11.498012 -0.000000 9.522697
RightHandThumb1 -24.326973 -0.000000 -32.862282
LeftUpLeg -40.949106 8.468569 5.967454
LeftLeg 20.117592 -0.000000 -0.000000
LeftFoot -11.299305 6.994895 4.604060
LeftToeBase 5.198565 -0.000000 -0.000000
RightUpLeg -124.587339 -19.486916 28.292241
RightLeg 94.036906 -0.000000 -0.000000
RightFoot 30.191943 10.907561 18.385602
RightToeBase 26.302139 -0.000000 -0.000000
150
root 1.749495 32.747853 -7.690608 31.565128 -6.870522 -15.793480
Spine -15.381869 14.608314 7.098971
Head -24.923206 -5.842804 4.601230
LeftShoulder -14.811639 44.658196 25.105513
LeftArm 59.964408 -15.295179 -64.079037
LeftForeArm 89.497547 0.000000 -0.731733
LeftHand -8.030816 -0.000000 59.098333
LeftHandThumb1 -26.253704 0.000000 33.147579
RightShoulder 6.059938 -38.548579 -8.838082
RightArm 74.489918 -10.027397 78.556757
RightForeArm 69.920946 -0.000000 -3.660058
RightHand 10.842812 -0.000000 9.830127
RightHandThumb1 -24.326973 -0.000000 -32.862282
LeftUpLeg -41.392498 8.727734 6.381060
LeftLeg 20.529018 -0.000000 -0.000000
LeftFoot -11.387441 6.979965 4.686967
LeftToeBase 5.134052 -0.000000 -0.000000
RightUpLeg -126.469388 -18.972752 29.126028
RightLeg 94.607588 -0.000000 -0.000000
RightFoot 30.833362 10.675481 18.628873
RightToeBase 26.421785 -0.000000 -0.000000
151
root 1.755742 32.752942 -7.717808 31.723155 -6.779321 -16.251034
Spine -15.145158 15.169434 7.500917
Head -25.466127 -6.187345 4.493504
LeftShoulder -14.920717 44.670873 24.924080
LeftArm 59.904289 -15.485465 -63.741332
LeftForeArm 89.783717 0.000000 -0.605334
LeftHand -8.593241 -0.000000 59.394299
LeftHandThumb1 -26.253704 0.000000 33.147579
RightShoulder 6.264037 -38.567015 -8.862216
RightArm 73.924960 -9.691369 79.908998
RightForeArm 71.713582 -0.000000 -4.767720
RightHand 9.358405 -0.000000 9.378387
RightHandThumb1 -24.326973 -0.000000 -32.862282
LeftUpLeg -41.722302 8.869519 6.805164
LeftLeg 20.898869 -0.000000 -0.000000
LeftFoot -11.454921 7.092459 4.872672
LeftToeBase 4.986509 -0.000000 -0.000000
RightUpLeg -128.295677 -18.525549 29.953898
RightLeg 95.191924 -0.000000 -0.000000
RightFoot 31.482451 10.566478 18.704157
RightToeBase 26.314691 -0.000000 -0.000000
